<svg width="52" height="51" viewBox="0 0 52 51" fill="none" xmlns="http://www.w3.org/2000/svg">
<path d="M0.849976 9.52004C1.25998 8.47004 2.04996 8.08004 3.14996 8.14004C4.00996 8.19004 4.86997 8.15005 5.72997 8.15005C6.81997 8.15005 7.37998 8.59005 7.70998 9.65005C7.73998 9.75005 7.88998 9.90005 7.98997 9.90005C9.43997 9.92005 10.9 9.91 12.35 9.91C12.48 9.91 12.61 9.89003 12.78 9.88003C12.87 8.95003 12.95 8.03001 13.03 7.11001C13.21 5.09001 13.37 3.06 13.55 1.04C13.6 0.430003 13.86 0.230027 14.48 0.190027C15.67 0.120027 16.77 0.340003 17.89 0.790003C25.34 3.79 32.8 6.74002 40.28 9.68002C40.84 9.90002 41.5 9.87004 42.12 9.89004C42.56 9.90004 42.86 10.04 43.13 10.39C44.02 11.56 44.93 12.72 45.83 13.87C46.06 14.16 46.2 14.47 46.02 14.83C45.84 15.18 45.51 15.26 45.14 15.25C43.79 15.24 42.43 15.25 41 15.25C41 15.43 41 15.59 41 15.75C41 18.19 40.99 20.64 41.01 23.08C41.01 23.32 41.14 23.62 41.31 23.8C43.12 25.64 44.95 27.4501 46.76 29.2801C47.01 29.5301 47.26 29.68 47.62 29.64C47.9 29.61 48.18 29.63 48.46 29.64C49.32 29.66 49.87 30.21 49.89 31.08C49.9 31.59 49.89 32.1 49.89 32.63C50.07 32.66 50.21 32.68 50.36 32.7C51.06 32.82 51.55 33.34 51.58 34.05C51.6 34.54 51.6 35.04 51.58 35.54C51.55 36.27 51.05 36.81 50.33 36.91C50.15 36.93 49.97 36.94 49.79 36.94C44.9 36.94 40.01 36.94 35.12 36.94C34.32 36.94 33.96 36.7 33.95 36.19C33.95 35.67 34.31 35.43 35.11 35.43C39.87 35.43 44.62 35.43 49.38 35.43C49.59 35.43 49.81 35.43 50.06 35.43C50.06 35.01 50.06 34.63 50.06 34.21C43.32 34.21 36.59 34.21 29.81 34.21C29.81 34.59 29.81 34.97 29.81 35.43C30.36 35.43 30.91 35.41 31.46 35.44C31.7 35.45 31.99 35.49 32.15 35.63C32.31 35.78 32.46 36.12 32.4 36.31C32.33 36.55 32.04 36.87 31.83 36.88C31.01 36.94 30.18 36.94 29.36 36.87C28.75 36.81 28.32 36.25 28.28 35.62C28.25 35.14 28.26 34.66 28.27 34.18C28.29 33.27 28.79 32.74 29.69 32.67C29.9 32.65 30.11 32.65 30.37 32.64C30.37 32.12 30.36 31.63 30.37 31.14C30.39 30.19 30.94 29.57 31.89 29.66C32.92 29.76 33.6 29.36 34.28 28.64C35.89 26.94 37.58 25.31 39.24 23.65C39.35 23.54 39.47 23.39 39.47 23.25C39.48 20.61 39.48 17.97 39.48 15.29C36.9 15.29 34.35 15.29 31.75 15.29C31.75 16.41 31.75 17.53 31.75 18.65C31.75 18.91 31.74 19.18 31.68 19.43C31.47 20.3 30.75 20.9 29.86 20.91C27.91 20.93 25.96 20.93 24.01 20.91C22.95 20.9 22.15 20.06 22.14 18.99C22.13 17.77 22.14 16.55 22.14 15.29C20.76 15.29 19.42 15.29 18 15.29C18.29 25.09 18.59 34.91 18.89 44.8C19.34 44.8 19.78 44.8 20.21 44.8C21.91 44.81 23.03 45.92 23.04 47.62C23.04 48.2 23.05 48.78 23.04 49.35C23.03 49.87 22.76 50.16 22.25 50.16C19.29 50.17 16.34 50.17 13.38 50.16C12.88 50.16 12.56 49.85 12.56 49.42C12.56 48.98 12.9 48.67 13.43 48.67C15.94 48.66 18.45 48.67 20.96 48.67C21.14 48.67 21.32 48.67 21.54 48.67C21.54 48.19 21.58 47.75 21.53 47.31C21.47 46.69 20.96 46.29 20.28 46.29C18.74 46.28 17.21 46.29 15.67 46.29C14.15 46.29 12.63 46.29 11.11 46.29C10.18 46.29 9.73997 46.72 9.71997 47.64C9.70997 47.97 9.71997 48.29 9.71997 48.68C9.95997 48.68 10.16 48.66 10.35 48.68C10.78 48.72 11.05 49.04 11.05 49.44C11.04 49.84 10.75 50.14 10.32 50.16C9.88998 50.18 9.45997 50.18 9.02997 50.16C8.50997 50.14 8.23997 49.89 8.21997 49.36C8.19997 48.68 8.18997 48 8.22997 47.33C8.31997 45.84 9.43997 44.81 10.94 44.8C11.14 44.8 11.33 44.8 11.58 44.8C11.88 34.94 12.17 25.1301 12.47 15.2801C10.87 15.2801 9.32996 15.2801 7.75996 15.2801C7.71996 15.4601 7.69996 15.64 7.64996 15.81C7.43996 16.53 6.82997 17.05 6.04997 17.07C4.87997 17.1 3.70997 17.09 2.52997 17.07C1.65997 17.06 1.19997 16.46 0.839966 15.76C0.849966 13.68 0.849976 11.6 0.849976 9.52004ZM7.74997 13.71C19.78 13.71 31.75 13.71 43.79 13.71C43.25 13.02 42.75 12.41 42.29 11.77C42.08 11.48 41.85 11.4 41.51 11.4C36.44 11.41 31.37 11.41 26.3 11.41C26.1 11.41 25.9 11.42 25.71 11.37C25.33 11.27 25.11 11 25.15 10.6C25.18 10.21 25.41 9.97001 25.81 9.92001C25.97 9.90001 26.14 9.91 26.3 9.91C29.54 9.91 32.77 9.91 36.01 9.91C36.16 9.91 36.31 9.91 36.46 9.91C36.46 9.88 36.47 9.84002 36.47 9.81002C30 7.24002 23.54 4.68005 17.01 2.09005C17.24 4.75005 17.47 7.31001 17.7 9.92001C17.91 9.92001 18.09 9.92001 18.27 9.92001C19.79 9.92001 21.31 9.92001 22.83 9.92001C23.32 9.92001 23.64 10.24 23.64 10.67C23.63 11.08 23.32 11.38 22.86 11.41C22.71 11.42 22.56 11.41 22.41 11.41C17.72 11.41 13.03 11.41 8.33997 11.41C8.14997 11.41 7.95997 11.41 7.74997 11.41C7.74997 12.21 7.74997 12.94 7.74997 13.71ZM30.27 15.29C28.04 15.29 25.86 15.29 23.64 15.29C23.64 16.53 23.64 17.73 23.64 18.93C23.64 19.25 23.83 19.42 24.14 19.42C26 19.43 27.87 19.42 29.73 19.42C30.04 19.42 30.25 19.26 30.26 18.95C30.28 17.74 30.27 16.52 30.27 15.29ZM48.39 31.17C42.87 31.17 37.39 31.17 31.93 31.17C31.93 31.68 31.93 32.15 31.93 32.62C37.44 32.62 42.9 32.62 48.39 32.62C48.39 32.12 48.39 31.66 48.39 31.17ZM2.33997 12.5901C2.33997 13.4301 2.34997 14.27 2.33997 15.12C2.33997 15.46 2.46997 15.6001 2.80997 15.5901C3.77997 15.5801 4.75997 15.5801 5.72997 15.5901C6.08997 15.6001 6.22997 15.46 6.22997 15.1C6.21996 13.45 6.21996 11.8 6.22997 10.15C6.22997 9.75005 6.05997 9.63004 5.68997 9.64004C4.74997 9.65004 3.80996 9.65004 2.86996 9.64004C2.49996 9.64004 2.32997 9.77 2.33997 10.16C2.34997 10.98 2.33997 11.7901 2.33997 12.5901ZM17.05 33.06C17.01 33.05 16.98 33.0401 16.94 33.0301C15.94 34.2801 14.94 35.53 13.93 36.8C15.04 37.6 16.09 38.36 17.23 39.19C17.17 37.06 17.11 35.06 17.05 33.06ZM14.99 1.71005C14.75 4.46005 14.52 7.16002 14.28 9.87002C14.97 9.87002 15.57 9.87002 16.19 9.87002C15.95 7.13002 15.71 4.42005 15.47 1.71005C15.31 1.71005 15.18 1.71005 14.99 1.71005ZM13.11 44.19C13.15 44.2 13.19 44.21 13.23 44.22C14.25 42.95 15.27 41.68 16.31 40.37C15.32 39.65 14.35 38.95 13.29 38.18C13.22 40.25 13.17 42.22 13.11 44.19ZM39.48 25.79C38.21 27.05 36.91 28.3601 35.67 29.5901C36.85 29.5901 38.16 29.5901 39.48 29.5901C39.48 28.2601 39.48 26.96 39.48 25.79ZM41.03 25.73C41.03 27.04 41.03 28.3301 41.03 29.5901C42.34 29.5901 43.61 29.5901 44.89 29.5901C43.59 28.2901 42.33 27.02 41.03 25.73ZM13.39 34.89C13.42 34.91 13.46 34.92 13.49 34.94C14.42 33.78 15.35 32.61 16.31 31.42C15.38 30.75 14.49 30.11 13.55 29.43C13.49 31.33 13.44 33.11 13.39 34.89ZM16.79 24.56C16.76 24.55 16.72 24.54 16.69 24.52C15.86 25.67 15.02 26.82 14.16 28.01C15.08 28.67 15.96 29.3201 16.95 30.0301C16.89 28.1201 16.84 26.34 16.79 24.56ZM13.75 26.0301C14.52 24.9701 15.28 23.9201 16.06 22.8401C15.31 22.3001 14.6 21.79 13.89 21.27C13.84 21.29 13.8 21.31 13.75 21.33C13.75 22.88 13.75 24.4301 13.75 26.0301ZM16.6 21.38C16.6 19.9 16.6 18.4701 16.6 17.0301C16.55 17.0201 16.51 17.01 16.46 17C15.77 17.91 15.08 18.83 14.37 19.77C15.14 20.33 15.87 20.86 16.6 21.38ZM17.31 44.79C17.31 43.74 17.31 42.7 17.31 41.51C16.38 42.67 15.56 43.7 14.69 44.79C15.64 44.79 16.48 44.79 17.31 44.79ZM13.97 17.82C14.62 16.95 15.23 16.1501 15.88 15.2801C15.19 15.2801 14.61 15.2801 13.97 15.2801C13.97 16.1101 13.97 16.92 13.97 17.82Z" fill="#BC2539"/>
</svg>
