<svg width="52" height="51" viewBox="0 0 52 51" fill="none" xmlns="http://www.w3.org/2000/svg">
<path d="M34.03 42.5902C32.47 37.0002 30.91 31.4002 29.34 25.8202C28.65 23.3802 27.95 20.9402 27.22 18.5102C26.99 17.7402 26.09 17.4002 25.57 17.9002C25.3 18.1502 25.19 18.5902 25.08 18.9702C24.13 22.2702 23.2 25.5702 22.27 28.8702C20.44 35.4202 18.61 41.9802 16.8 48.5402C16.4 49.9802 16.66 50.3102 18.14 50.3202C20.82 50.3402 23.5 50.3302 26.18 50.3302C26.18 50.3402 26.18 50.3602 26.18 50.3702C26.78 50.3702 27.37 50.3702 27.97 50.3702C30.16 50.3602 32.36 50.3602 34.55 50.3202C35.74 50.2902 35.99 49.9202 35.69 48.7902C35.14 46.7102 34.6 44.6502 34.03 42.5902ZM31.59 41.8602C29 41.8602 26.52 41.8602 24.05 41.8602C24.02 41.8202 24 41.7702 23.97 41.7302C26.09 40.4602 28.21 39.1902 30.46 37.8402C30.86 39.2602 31.21 40.5202 31.59 41.8602ZM26.11 22.9702C26.18 22.9602 26.25 22.9602 26.31 22.9502C27.46 27.1002 28.62 31.2502 29.8 35.5002C27.35 35.5002 25.03 35.5002 22.6 35.5002C23.78 31.3002 24.94 27.1402 26.11 22.9702ZM21.96 37.9402C22 37.8202 22.25 37.7002 22.4 37.7002C23.66 37.6802 24.93 37.6902 26.19 37.6902C26.21 37.7602 26.23 37.8302 26.25 37.9002C24.61 38.8802 22.97 39.8602 21.1 40.9802C21.42 39.8102 21.67 38.8702 21.96 37.9402ZM19.29 47.4702C19.64 46.1702 19.93 45.1202 20.22 44.0502C22.47 44.0502 24.68 44.0502 26.88 44.0502C26.9 44.1002 26.92 44.1402 26.94 44.1902C24.47 45.2402 22 46.3002 19.29 47.4702ZM23.31 48.2202C23.29 48.1802 23.27 48.1402 23.26 48.1002C26.21 46.8402 29.15 45.5802 32.25 44.2602C32.64 45.6302 33 46.8802 33.38 48.2202C29.97 48.2202 26.64 48.2202 23.31 48.2202Z" fill="#BC2539"/>
<path d="M9.15998 34.4401C5.52998 30.5001 3.43997 25.8501 3.03997 20.5301C2.52997 13.7801 4.59998 7.84012 9.15998 2.81012C9.40998 2.53012 9.77998 2.26011 9.85998 1.93011C9.94998 1.54011 9.91998 0.980112 9.68998 0.680112C9.37998 0.280112 8.83997 0.240134 8.39997 0.640134C8.09997 0.910134 7.79998 1.19011 7.52998 1.49011C3.11998 6.31011 0.939975 12.0001 0.869975 18.5101C0.809975 22.9501 1.80998 27.1301 4.05998 30.9301C5.21998 32.8901 6.75998 34.6301 8.16998 36.4301C8.57998 36.9601 9.19998 37.0901 9.72997 36.5601C10.23 36.0501 10.13 35.4801 9.66998 34.9701C9.49998 34.7901 9.32998 34.6201 9.15998 34.4401Z" fill="#BC2539"/>
<path d="M48.05 5.75018C46.92 3.96018 45.46 2.37015 44.12 0.720146C43.73 0.240146 43.17 0.28019 42.74 0.64019C42.31 1.01019 42.25 1.53021 42.6 2.03021C42.8 2.3102 43.05 2.57019 43.29 2.83019C47.94 8.00019 49.97 14.0302 49.32 20.9602C48.84 26.1302 46.76 30.5801 43.3 34.4101C42.99 34.7501 42.63 35.1002 42.5 35.5002C42.4 35.8102 42.53 36.3402 42.76 36.5502C42.99 36.7602 43.5 36.8102 43.84 36.7402C44.12 36.6902 44.35 36.3602 44.57 36.1302C49.18 31.2502 51.48 25.4301 51.59 18.9701C51.55 14.0901 50.52 9.70018 48.05 5.75018Z" fill="#BC2539"/>
<path d="M13.36 29.61C8.87999 23.99 8.04999 17.85 11.02 11.32C11.76 9.68001 13.07 8.29001 14.08 6.76001C14.3 6.43001 14.5 5.94999 14.43 5.60999C14.23 4.74999 13.29 4.62003 12.6 5.34003C9.01999 9.06003 7.24999 13.51 7.20999 18.66C7.17999 21.64 7.77999 24.5 9.21999 27.09C10.14 28.75 11.35 30.26 12.52 31.77C13.09 32.51 13.72 32.54 14.2 32.11C14.69 31.67 14.64 31.12 14.06 30.4C13.82 30.15 13.58 29.89 13.36 29.61Z" fill="#BC2539"/>
<path d="M43.65 11.0002C42.7 8.8902 41.45 6.97021 39.81 5.32021C39.34 4.85021 38.82 4.63018 38.25 5.16018C37.68 5.69017 37.88 6.22018 38.3 6.73018C38.63 7.13018 38.97 7.51017 39.29 7.91018C44.14 13.9302 44.42 22.0702 39.98 28.4102C39.42 29.2002 38.76 29.9302 38.17 30.6902C37.78 31.1902 37.81 31.7202 38.29 32.1402C38.75 32.5402 39.25 32.4402 39.68 32.0602C39.92 31.8502 40.15 31.6102 40.36 31.3702C43.59 27.7102 45.21 23.4402 45.25 19.3102C45.23 15.9302 44.73 13.4002 43.65 11.0002Z" fill="#BC2539"/>
<path d="M13.37 18.6102C13.68 20.0802 13.9 21.5802 14.34 23.0102C14.87 24.7002 15.86 26.1702 17.1 27.4502C17.57 27.9302 18.09 28.1302 18.67 27.6602C19.17 27.2602 19.15 26.6502 18.64 26.0102C18.49 25.8202 18.31 25.6502 18.16 25.4602C15.56 22.2402 14.94 18.6502 16.44 14.8202C16.96 13.4902 17.99 12.3802 18.72 11.1202C18.91 10.8002 19 10.2702 18.86 9.96023C18.73 9.68023 18.22 9.41019 17.9 9.42019C17.56 9.44019 17.18 9.75019 16.92 10.0402C14.74 12.4602 13.51 15.2702 13.58 18.5802C13.51 18.5802 13.44 18.5902 13.37 18.6102Z" fill="#BC2539"/>
<path d="M33.54 26.4403C33.49 26.8403 33.57 27.3903 33.83 27.6303C34.04 27.8403 34.61 27.7803 34.98 27.6903C35.23 27.6303 35.44 27.3302 35.63 27.1002C37.78 24.6702 38.87 21.8402 38.88 18.6002C38.87 16.6202 38.57 15.1503 37.74 13.3403C37.08 11.9003 36.23 10.5703 34.96 9.61025C34.71 9.42025 34.05 9.43026 33.84 9.62026C33.58 9.86026 33.52 10.4003 33.53 10.8103C33.54 11.0503 33.83 11.3003 34.03 11.5203C37.65 15.6603 37.7 21.4003 34.14 25.5903C33.92 25.8603 33.58 26.1403 33.54 26.4403Z" fill="#BC2539"/>
</svg>
