<svg width="50" height="51" viewBox="0 0 50 51" fill="none" xmlns="http://www.w3.org/2000/svg">
<path d="M48.65 30.0803C48.31 29.7603 48.14 29.3802 48.14 28.9102C48.15 26.4902 48.15 24.0603 48.14 21.6403C48.14 21.1703 48.3 20.7902 48.64 20.4702C49.81 19.3502 49.99 18.0702 49.19 16.6802C47.68 14.0602 46.16 11.4403 44.64 8.83026C43.86 7.49026 42.62 7.00024 41.15 7.43024C40.68 7.57024 40.26 7.53022 39.84 7.29022C37.74 6.08022 35.63 4.88026 33.54 3.64026C33.24 3.46026 32.91 3.13025 32.84 2.82025C32.55 1.46025 31.76 0.640273 30.44 0.280273C26.95 0.280273 23.46 0.280273 19.97 0.280273C19.93 0.310273 19.9 0.350229 19.85 0.360229C18.67 0.680229 17.95 1.44025 17.7 2.63025C17.6 3.11025 17.32 3.44024 16.9 3.68024C14.82 4.87024 12.75 6.06026 10.68 7.27026C10.23 7.53026 9.78002 7.57023 9.28002 7.42023C7.89002 7.00023 6.62003 7.49023 5.88003 8.74023C5.38003 9.58023 4.90003 10.4303 4.41003 11.2703C4.11003 11.7903 4.17003 12.1902 4.55003 12.4302C4.95003 12.6802 5.37002 12.5303 5.67002 12.0203C6.15002 11.2103 6.61002 10.3803 7.09002 9.57025C7.53002 8.82025 8.07002 8.60027 8.90002 8.84027C9.80002 9.11027 10.63 8.99026 11.44 8.52026C13.47 7.34026 15.5 6.17025 17.54 5.01025C18.38 4.53025 18.93 3.87022 19.15 2.91022C19.34 2.09022 19.82 1.74023 20.66 1.74023C23.71 1.74023 26.76 1.74023 29.81 1.74023C30.68 1.74023 31.15 2.10025 31.34 2.94025C31.55 3.83025 32.05 4.49026 32.84 4.95026C34.93 6.15026 37.02 7.35024 39.1 8.56024C39.88 9.01024 40.69 9.10022 41.55 8.85022C42.39 8.60022 42.94 8.81023 43.37 9.55023C44.91 12.1902 46.44 14.8402 47.96 17.4902C48.37 18.2102 48.28 18.8102 47.67 19.3802C46.98 20.0202 46.67 20.7902 46.68 21.7302C46.69 24.1102 46.69 26.4802 46.68 28.8602C46.68 29.7802 46.99 30.5402 47.65 31.1702C48.29 31.7802 48.37 32.3603 47.92 33.1403C46.42 35.7503 44.91 38.3503 43.4 40.9503C42.93 41.7603 42.41 41.9703 41.52 41.7103C40.68 41.4703 39.88 41.5502 39.12 41.9902C37.02 43.2002 34.92 44.4202 32.81 45.6202C32.03 46.0702 31.54 46.7203 31.33 47.5903C31.12 48.4603 30.67 48.8102 29.77 48.8102C26.75 48.8102 23.74 48.8102 20.72 48.8102C19.79 48.8102 19.33 48.4703 19.12 47.5703C18.92 46.7103 18.44 46.0702 17.68 45.6302C15.58 44.4202 13.48 43.2102 11.38 41.9902C10.6 41.5402 9.79002 41.4503 8.93002 41.7003C8.07002 41.9503 7.53002 41.7403 7.08002 40.9603C5.56002 38.3403 4.05002 35.7202 2.54002 33.1002C2.09002 32.3202 2.17002 31.7503 2.83002 31.1403C3.49002 30.5203 3.80003 29.7702 3.80003 28.8802C3.80003 26.4702 3.80003 24.0603 3.80003 21.6503C3.80003 20.7603 3.49003 20.0103 2.82003 19.3903C2.16003 18.7803 2.09002 18.2102 2.54002 17.4302C3.04002 16.5502 3.55003 15.6802 4.05003 14.8102C4.34003 14.3002 4.28002 13.9002 3.89002 13.6602C3.48002 13.4102 3.09003 13.5602 2.77003 14.1002C2.25003 14.9902 1.74002 15.8703 1.23002 16.7603C0.480019 18.0803 0.670022 19.3902 1.78002 20.4302C2.15002 20.7802 2.33002 21.1802 2.33002 21.6802C2.33002 24.0702 2.33002 26.4602 2.33002 28.8602C2.33002 29.3602 2.15002 29.7602 1.78002 30.1102C0.660022 31.1702 0.470023 32.4703 1.25002 33.8203C2.77002 36.4603 4.29003 39.0902 5.82003 41.7202C6.60003 43.0602 7.84003 43.5502 9.32003 43.1102C9.79003 42.9702 10.21 43.0102 10.63 43.2502C12.73 44.4602 14.83 45.6702 16.94 46.8802C17.35 47.1102 17.59 47.4502 17.7 47.9102C18.08 49.4502 19.1 50.2603 20.67 50.2603C23.7 50.2603 26.74 50.2603 29.77 50.2603C31.34 50.2603 32.39 49.4502 32.76 47.9202C32.87 47.4402 33.13 47.1002 33.55 46.8602C35.64 45.6602 37.73 44.4602 39.81 43.2502C40.23 43.0102 40.65 42.9602 41.12 43.1002C42.61 43.5402 43.84 43.0502 44.62 41.7202C46.15 39.0902 47.67 36.4603 49.19 33.8203C49.99 32.4703 49.79 31.1803 48.65 30.0803Z" fill="#BC2539"/>
<path d="M8.81004 25.2304C8.79004 34.2504 16.16 41.6304 25.21 41.6504C34.22 41.6704 41.57 34.3504 41.63 25.3004C41.69 16.3104 34.28 8.89038 25.23 8.88038C16.22 8.87038 8.83004 16.2204 8.81004 25.2304ZM25.24 10.3504C33.47 10.3604 40.17 17.0504 40.17 25.2704C40.18 33.4804 33.47 40.1804 25.24 40.1904C17.03 40.2104 10.29 33.5004 10.28 25.3004C10.26 17.0704 17 10.3404 25.24 10.3504Z" fill="#BC2539"/>
<path d="M25.57 7.12026C28.86 7.20026 31.93 8.06026 34.73 9.80026C35.27 10.1303 35.76 10.5403 36.31 10.8603C36.52 10.9803 36.85 11.0103 37.07 10.9303C37.27 10.8603 37.4 10.5803 37.62 10.3203C37.38 10.0303 37.23 9.76029 37.01 9.59029C34.36 7.59029 31.39 6.35027 28.1 5.88027C27.17 5.75027 26.22 5.71025 25.28 5.67025C24.81 5.65025 24.48 6.00025 24.49 6.42025C24.5 6.82025 24.81 7.10026 25.27 7.12026C25.37 7.12026 25.47 7.11026 25.57 7.12026Z" fill="#BC2539"/>
<path d="M7.17999 29.9402C6.52999 29.9402 6.24999 30.4002 6.42999 31.0202C7.02999 33.0002 7.93999 34.8202 9.11999 36.5102C10.28 38.1602 11.65 39.6102 13.25 40.8302C13.75 41.2102 14.31 41.0902 14.49 40.5802C14.63 40.1802 14.42 39.9202 14.14 39.6502C13.22 38.8002 12.26 37.9902 11.43 37.0602C9.75998 35.2002 8.6 33.0302 7.85 30.6402C7.72 30.2402 7.53999 29.9502 7.17999 29.9402Z" fill="#BC2539"/>
<path d="M17.23 26.6101C18.89 26.6101 20.56 26.6101 22.22 26.6001C22.39 26.6001 22.56 26.6001 22.8 26.6001C22.31 27.7901 21.86 28.8801 21.4 29.9701C20.64 31.8001 19.87 33.6301 19.11 35.4601C18.86 36.0701 19.12 36.6101 19.7 36.5901C19.93 36.5801 20.2 36.4401 20.37 36.2701C23.04 33.6401 25.7 31.0001 28.36 28.3601C28.44 28.2801 28.52 28.2001 28.58 28.1001C28.76 27.7801 28.73 27.4701 28.46 27.2101C28.19 26.9501 27.88 26.9301 27.57 27.1201C27.43 27.2001 27.32 27.3301 27.21 27.4401C25.6 29.0301 24 30.6301 22.39 32.2201C22.27 32.3401 22.13 32.4601 22 32.5801C22.34 31.5501 22.74 30.5801 23.15 29.6001C23.62 28.4801 24.1 27.3501 24.55 26.2201C24.8 25.6001 24.5 25.1501 23.84 25.1101C23.69 25.1001 23.55 25.1101 23.4 25.1101C21.69 25.1101 19.98 25.1101 18.21 25.1101C18.26 24.9801 18.28 24.9201 18.31 24.8701C19.99 21.8001 21.66 18.7401 23.36 15.6801C23.44 15.5301 23.7 15.3901 23.88 15.3801C25.58 15.3601 27.27 15.3701 28.97 15.3701C29.09 15.3701 29.21 15.3901 29.38 15.4001C29.23 15.6301 29.12 15.8101 29.01 15.9801C27.79 17.8101 26.58 19.6401 25.35 21.4601C25.13 21.7901 24.9 22.1202 25.12 22.5302C25.34 22.9302 25.72 22.9101 26.1 22.9101C27.81 22.9101 29.52 22.9101 31.24 22.9101C31.37 22.9101 31.51 22.9301 31.74 22.9501C31.13 23.5501 30.59 24.0701 30.07 24.6001C29.95 24.7201 29.77 24.8902 29.78 25.0302C29.81 25.3102 29.87 25.6601 30.06 25.8301C30.36 26.1001 30.73 26.0001 31.02 25.7101C31.97 24.7701 32.91 23.8301 33.87 22.8901C34.15 22.6101 34.38 22.3301 34.2 21.9101C34.02 21.4901 33.66 21.4401 33.27 21.4401C31.43 21.4501 29.59 21.4401 27.74 21.4401C27.57 21.4401 27.4 21.4301 27.17 21.4101C27.3 21.2001 27.39 21.0501 27.48 20.9101C28.74 19.0101 30 17.1201 31.27 15.2201C31.47 14.9201 31.63 14.6301 31.43 14.2701C31.24 13.9101 30.91 13.8801 30.55 13.8801C28.15 13.8901 25.76 13.8901 23.36 13.8701C22.83 13.8701 22.53 14.0601 22.28 14.5201C20.34 18.0901 18.38 21.6501 16.43 25.2201C15.96 26.1001 16.27 26.6101 17.23 26.6101Z" fill="#BC2539"/>
</svg>
