<svg width="51" height="51" viewBox="0 0 51 51" fill="none" xmlns="http://www.w3.org/2000/svg">
<path d="M25.34 0.0800565C11.9 -0.0799435 0.0600254 11.16 0.190025 24.68C0.340025 40.42 11.46 49.9201 25.14 50.0801C38.39 50.0701 50.05 40.9901 50.26 25.0301C50.45 11.0301 39.02 0.250057 25.34 0.0800565ZM25.23 47.6401C12.5 47.5201 2.66003 37.53 2.80003 24.88C2.94003 12.31 12.82 2.60003 25.33 2.74003C38.41 2.88003 47.8 12.64 47.68 25.98C47.58 37.77 37.23 47.7601 25.23 47.6401Z" fill="#BC2539"/>
<path d="M43.31 23.1C43.31 19.55 42.06 18.33 38.46 18.36C36.38 18.37 34.3 18.36 32.1 18.36C32.1 15.77 32.15 13.4601 32.09 11.1501C32.02 8.52006 30.52 7.09002 27.91 7.05002C26.32 7.03002 24.72 7.03001 23.13 7.04001C19.81 7.05001 18.44 8.41006 18.41 11.7101C18.39 13.8601 18.41 16.01 18.41 18.37C15.9 18.37 13.55 18.34 11.2 18.38C8.64003 18.42 7.22003 19.85 7.18003 22.42C7.15003 24.17 7.17003 25.92 7.18003 27.67C7.19003 30.56 8.64004 32.0001 11.55 32.0301C13.75 32.0501 15.96 32.0301 18.39 32.0301C18.39 34.5101 18.36 36.7701 18.4 39.0201C18.44 41.7601 19.89 43.2 22.6 43.23C24.25 43.25 25.89 43.25 27.54 43.24C30.74 43.22 32.1 41.84 32.12 38.61C32.13 36.47 32.12 34.32 32.12 32.01C34.54 32.01 36.79 32.03 39.04 32C41.87 31.97 43.31 30.52 43.33 27.72C43.33 26.19 43.31 24.64 43.31 23.1ZM38.79 29.5201C37.55 29.5001 36.32 29.5201 35.08 29.5201V29.5301C33.84 29.5301 32.61 29.5901 31.37 29.5201C30 29.4401 29.54 30.09 29.56 31.36C29.59 33.68 29.58 35.99 29.56 38.31C29.54 40.48 29.28 40.73 27.18 40.73C25.74 40.73 24.29 40.67 22.86 40.73C21.43 40.79 20.93 40.1201 20.95 38.7801C20.99 36.4101 20.97 34.04 20.97 31.68C20.97 29.78 20.72 29.5301 18.86 29.5301C16.49 29.5301 14.12 29.5401 11.76 29.5301C10.12 29.5201 9.69003 29.0701 9.67003 27.4001C9.65003 25.8601 9.67003 24.3101 9.65003 22.7701C9.63003 21.5001 10.19 20.8801 11.51 20.9001C13.98 20.9401 16.45 20.87 18.92 20.92C20.35 20.95 21 20.36 20.98 18.91C20.94 16.49 20.96 14.0701 20.98 11.6501C21 9.95006 21.37 9.58003 23.09 9.56003C24.58 9.54003 26.08 9.59003 27.57 9.56003C29.01 9.53003 29.61 10.2 29.59 11.63C29.55 14.05 29.63 16.47 29.56 18.89C29.52 20.35 30.1 20.95 31.56 20.92C34.03 20.86 36.5 20.93 38.97 20.89C40.26 20.87 40.88 21.4 40.85 22.72C40.82 24.32 40.81 25.91 40.86 27.51C40.9 28.96 40.18 29.5401 38.79 29.5201Z" fill="#BC2539"/>
</svg>
