<svg width="61" height="61" viewBox="0 0 61 61" fill="none" xmlns="http://www.w3.org/2000/svg">
<path d="M51.09 44.4001C50.23 44.5001 49.39 44.6903 48.54 44.8503C45.15 45.4903 41.76 46.1403 38.33 46.8003C37.43 44.4703 35.67 43.7504 33.41 43.8604C32.59 43.9004 31.76 43.8404 30.93 43.8704C29.29 43.9304 28.02 43.2602 27.14 41.9102C25.81 39.8802 23.94 39.0103 21.54 39.0603C19.07 39.1203 16.6 39.0703 13.99 39.0703C13.99 38.1803 13.98 37.4101 13.99 36.6301C14 35.7401 13.57 35.3403 12.69 35.3403C9.11003 35.3503 5.53004 35.3403 1.95004 35.3403C1.09004 35.3403 0.650024 35.7201 0.650024 36.6301C0.660024 44.1801 0.660024 51.7403 0.650024 59.2903C0.650024 60.1903 1.07004 60.5703 1.95004 60.5603C5.53004 60.5503 9.11003 60.5403 12.69 60.5603C13.59 60.5603 13.99 60.1603 13.99 59.2803C13.98 58.4703 13.99 57.6603 13.99 56.8103C14.35 56.8103 14.54 56.7903 14.73 56.8103C18.7 57.3903 22.66 57.9603 26.63 58.5803C29.67 59.0503 32.74 59.6004 35.71 58.3604C41.51 55.9404 47.2801 53.4402 53.0301 50.9202C54.6401 50.2102 55.3501 48.5001 54.9001 46.8901C54.4501 45.2901 52.82 44.2001 51.09 44.4001ZM12 58.6104C8.87003 58.6104 5.78003 58.6104 2.62003 58.6104C2.62003 51.5204 2.62003 44.4603 2.62003 37.3103C5.80003 37.3103 8.85003 37.3103 12 37.3103C12 44.4303 12 51.4804 12 58.6104ZM51.75 49.4602C46.4 51.7502 41.06 54.0403 35.73 56.3503C33.12 57.4803 30.46 57.2703 27.74 56.8303C23.24 56.1003 18.72 55.5003 14.07 54.8203C14.07 50.1803 14.07 45.6302 14.07 41.0002C17 41.0002 19.87 40.8603 22.71 41.0803C23.65 41.1503 24.76 41.9803 25.36 42.7803C26.88 44.8103 28.73 45.8903 31.29 45.7603C32.23 45.7103 33.18 45.7303 34.12 45.7603C35.55 45.8003 36.51 46.6102 36.48 47.7002C36.44 49.1402 35.58 50.0503 34.09 50.0603C30.08 50.0903 26.06 50.0603 22.05 50.0803C21.28 50.0803 20.12 49.7702 20.1 50.9802C20.09 52.2802 21.3 51.9502 22.1 51.9602C25.92 51.9902 29.73 51.9402 33.55 51.9802C35.69 52.0002 37.28 51.2702 38.15 49.2002C38.27 48.9202 38.7 48.6603 39.02 48.6003C42.95 47.8303 46.89 47.1003 50.83 46.3503C51.83 46.1603 52.7101 46.3401 53.0301 47.4001C53.3501 48.4801 52.68 49.0702 51.75 49.4602Z" fill="#BC2539"/>
<path d="M58.04 0.570312C44.35 0.570312 30.65 0.570312 16.96 0.570312C14.94 0.570312 14.36 1.15015 14.36 3.15015C14.36 11.3001 14.36 19.4403 14.36 27.5903C14.36 29.6003 14.93 30.1602 16.97 30.1602C23.82 30.1602 30.66 30.1602 37.51 30.1602C44.4 30.1602 51.28 30.1602 58.17 30.1602C60.05 30.1602 60.66 29.5502 60.66 27.7102C60.66 19.5302 60.66 11.3402 60.66 3.16016C60.65 1.16016 60.06 0.570312 58.04 0.570312ZM58.7 28.1902C44.58 28.1902 30.5 28.1902 16.34 28.1902C16.34 19.6902 16.34 11.1703 16.34 2.5603C30.41 2.5603 44.51 2.5603 58.7 2.5603C58.7 11.1303 58.7 19.6202 58.7 28.1902Z" fill="#BC2539"/>
<path d="M19.37 22.7603C20.7 22.9003 21.58 23.6903 21.73 25.0103C21.87 26.2303 22.51 26.4302 23.56 26.4302C28.16 26.3902 32.77 26.4102 37.37 26.4102C42.13 26.4102 46.89 26.4002 51.66 26.4202C52.51 26.4202 53.05 26.2402 53.2 25.2402C53.44 23.6502 54.13 23.0203 55.74 22.7603C56.64 22.6103 56.88 22.1303 56.88 21.2903C56.86 17.3503 56.86 13.4202 56.88 9.48022C56.88 8.65022 56.66 8.15028 55.73 8.04028C54.26 7.87028 53.37 7.00026 53.19 5.52026C53.08 4.62026 52.63 4.34033 51.78 4.34033C42.26 4.35033 32.73 4.35033 23.21 4.34033C22.35 4.34033 21.91 4.63026 21.8 5.52026C21.62 7.00026 20.72 7.86027 19.26 8.03027C18.33 8.14027 18.11 8.64021 18.11 9.47021C18.13 13.4102 18.14 17.3403 18.11 21.2803C18.11 22.2103 18.44 22.6603 19.37 22.7603ZM20.07 9.90015C21.87 9.34015 23.14 8.17026 23.66 6.27026C32.91 6.27026 42.1 6.27026 51.37 6.27026C51.93 8.17026 53.12 9.33036 54.95 9.87036C54.95 13.5204 54.95 17.1704 54.95 20.8704C53.26 21.3904 52.07 22.4204 51.45 24.1104C51.37 24.3204 50.9 24.4902 50.61 24.4902C41.88 24.5102 33.15 24.5102 24.43 24.4902C24.12 24.4902 23.64 24.2603 23.54 24.0103C22.9 22.3903 21.73 21.3801 20.07 20.8801C20.07 17.2201 20.07 13.6101 20.07 9.90015Z" fill="#BC2539"/>
<path d="M37.3901 22.3103C41.2701 22.3503 44.4001 19.2902 44.4201 15.4302C44.4401 11.5802 41.3201 8.41016 37.5001 8.41016C33.7201 8.41016 30.6101 11.5103 30.5801 15.3103C30.5501 19.1403 33.6001 22.2703 37.3901 22.3103ZM37.5501 10.3303C40.3201 10.3703 42.5201 12.6201 42.5101 15.4001C42.5001 18.1801 40.2801 20.4102 37.5001 20.4102C34.6801 20.4102 32.4401 18.1303 32.4801 15.2903C32.5201 12.5303 34.8101 10.2903 37.5501 10.3303Z" fill="#BC2539"/>
<path d="M49.87 18.5406C51.6 18.5206 53.02 17.0906 53.01 15.3606C53 13.6406 51.56 12.2005 49.84 12.1905C48.06 12.1805 46.64 13.6505 46.68 15.4505C46.71 17.2105 48.1 18.5606 49.87 18.5406ZM48.39 15.0506C48.88 14.7306 49.35 14.2104 49.87 14.1504C50.6 14.0704 51.1 14.6405 51.06 15.4205C51.02 16.1805 50.54 16.7406 49.78 16.5806C49.26 16.4706 48.84 15.9406 48.37 15.5906C48.38 15.4206 48.39 15.2306 48.39 15.0506Z" fill="#BC2539"/>
<path d="M25.22 18.5402C26.98 18.5202 28.34 17.1403 28.34 15.3703C28.34 13.6203 26.94 12.2001 25.21 12.1901C23.5 12.1701 22.04 13.6103 22.01 15.3203C21.96 17.0803 23.43 18.5502 25.22 18.5402ZM25.15 14.1501C25.67 14.2101 26.13 14.7503 26.62 15.0703C26.62 15.2503 26.63 15.4403 26.63 15.6203C26.16 15.9603 25.72 16.4803 25.2 16.5803C24.44 16.7303 23.96 16.1501 23.94 15.3901C23.91 14.6301 24.42 14.0601 25.15 14.1501Z" fill="#BC2539"/>
</svg>
