<svg width="51" height="61" viewBox="0 0 51 61" fill="none" xmlns="http://www.w3.org/2000/svg">
<path d="M48.2 17.2199C46.35 17.2199 44.5 17.2199 42.69 17.2199C42.45 15.9399 42.25 14.8199 42.01 13.7099C41.86 13.0399 41.55 12.3898 40.71 12.6498C39.97 12.8798 40.03 13.4998 40.18 14.1598C40.4 15.1098 40.52 16.08 40.69 17.09C38.69 17.09 36.85 17.09 35.01 17.09C35.37 16.68 35.76 16.4499 36.16 16.2199C37.62 15.3799 37.86 14.5698 37.04 13.1298C36.48 12.1398 35.91 11.1499 35.32 10.1799C34.58 8.97986 33.78 8.77987 32.54 9.43987C32.2 9.61987 31.88 9.80993 31.55 9.99993C30.25 10.7099 28.97 9.9599 28.95 8.4699C28.95 8.0499 28.96 7.6299 28.94 7.2199C28.88 5.9799 28.25 5.32998 27.01 5.29998C25.68 5.26998 24.35 5.26998 23.02 5.29998C21.94 5.32998 21.35 5.94992 21.22 6.98992C21.17 7.43992 21.2 7.90004 21.2 8.36004C21.19 10 19.93 10.7499 18.5 9.94988C18.17 9.76988 17.84 9.56983 17.51 9.38982C16.35 8.79982 15.46 9.01003 14.78 10.1C14.14 11.13 13.52 12.1799 12.94 13.2399C12.28 14.4399 12.58 15.4 13.78 16.12C14.24 16.39 14.7 16.6599 15.17 16.9299C15.13 16.9899 15.1 17.05 15.06 17.11C13.23 17.11 11.4 17.11 9.57001 17.11C9.42001 11.37 14.09 5.41001 20.07 3.33001C25.78 1.34001 32.13 3.42989 33.76 5.45989C33.59 5.47989 33.44 5.50994 33.3 5.50994C32.64 5.50994 32.14 5.73989 32.14 6.45989C32.14 7.27989 32.75 7.39983 33.42 7.38983C34.48 7.37983 35.55 7.38983 36.61 7.38983C37.3 7.38983 37.68 7.06003 37.69 6.35003C37.71 5.17003 37.72 4 37.73 2.82C37.73 2.16 37.41 1.57992 36.75 1.73992C36.37 1.82992 36.04 2.45984 35.84 2.90984C35.69 3.23984 35.78 3.67991 35.75 4.22991C29.96 0.149913 23.96 -0.600019 17.71 2.29998C11.46 5.19998 8.23 10.3399 7.5 17.2099C5.55 17.2099 3.7 17.2099 1.84 17.2099C0.339996 17.2099 0.130005 17.4199 0.130005 18.9199C0.130005 28.6399 0.130005 38.37 0.130005 48.09C0.130005 49.6 0.309985 49.77 1.85999 49.77C7.81999 49.77 13.79 49.77 19.75 49.77C20.19 49.77 20.64 49.81 21.1 49.83C21.1 51.45 21.1 52.9399 21.1 54.4599C20.79 54.4899 20.57 54.53 20.35 54.53C18.53 54.54 16.7 54.55 14.88 54.53C13.88 54.52 13.41 54.9599 13.45 55.9799C13.48 56.9699 13.45 57.9599 13.46 58.9399C13.47 60.2799 13.71 60.53 15.07 60.53C18.22 60.54 21.38 60.53 24.53 60.53C28.06 60.53 31.6 60.54 35.13 60.53C36.4 60.53 36.65 60.2599 36.66 58.9799C36.67 58.0699 36.67 57.1599 36.66 56.2399C36.65 54.7599 36.43 54.54 34.94 54.53C33.01 54.52 31.08 54.53 29.01 54.53C29.01 53.28 29.08 52.1399 28.99 51.02C28.91 50.01 29.25 49.7299 30.26 49.7399C36.26 49.7899 42.26 49.7599 48.27 49.7599C49.86 49.7599 50.02 49.5899 50.02 47.9799C50.02 38.3299 50.02 28.68 50.02 19.03C50.01 17.4 49.84 17.2299 48.2 17.2199ZM14.52 14.33C15.18 13.17 15.78 12.12 16.39 11.04C18.01 11.47 19.06 13.11 21.25 11.77C23.31 10.51 23.01 8.99992 23.1 7.23992C24.42 7.23992 25.65 7.23992 26.98 7.23992C27.34 8.78992 26.58 10.4899 28.78 11.7399C30.91 12.9499 31.99 11.73 33.61 11.05C34.25 12.14 34.88 13.2 35.54 14.33C34.29 15.44 32.42 15.6099 32.49 18.1699C32.55 20.5699 33.99 21.0099 35.52 21.9299C34.87 23.0999 34.27 24.18 33.64 25.32C32.04 24.7 30.91 23.36 28.76 24.58C26.6 25.8 27.25 27.4099 26.99 29.1799C25.83 29.1799 24.67 29.2098 23.52 29.1498C23.35 29.1398 23.05 28.6399 23.09 28.4199C23.45 26.3599 22.67 25.13 20.71 24.32C19.8 23.94 19.16 23.75 18.34 24.31C17.78 24.69 17.16 24.9899 16.41 25.4199C15.78 24.2899 15.17 23.19 14.53 22.03C15.95 21.01 17.6 20.7199 17.62 18.1999C17.62 15.6299 15.91 15.39 14.52 14.33ZM34.7 56.55C34.7 57.28 34.7 57.88 34.7 58.56C28.3 58.56 21.95 58.56 15.49 58.56C15.49 57.92 15.49 57.27 15.49 56.55C21.88 56.55 28.23 56.55 34.7 56.55ZM23.11 50.3898C23.12 50.1898 23.44 49.84 23.62 49.84C24.74 49.79 25.87 49.81 27.05 49.81C27.05 51.42 27.05 52.8799 27.05 54.4699C25.71 54.4699 24.48 54.4699 23.08 54.4699C23.08 53.0899 23.06 51.7398 23.11 50.3898ZM48.03 47.83C32.73 47.83 17.46 47.83 2.09 47.83C2.09 46.6 2.09 45.47 2.09 44.27C17.41 44.27 32.68 44.27 48.03 44.27C48.03 45.45 48.03 46.6 48.03 47.83ZM48.03 42.1799C32.73 42.1799 17.46 42.1799 2.10001 42.1799C2.10001 34.5499 2.10001 26.9299 2.10001 19.2399C3.87001 19.2399 5.62999 19.2399 7.45999 19.2399C7.65999 20.3299 7.84 21.45 8.09 22.54C8.24 23.23 8.5 23.9799 9.41 23.7199C10.25 23.4799 10.07 22.79 9.92001 22.11C9.71001 21.19 9.61 20.2499 9.44 19.1899C11.51 19.1899 13.35 19.1899 15.2 19.1899C15.23 19.2499 15.26 19.3098 15.29 19.3798C14.72 19.7098 14.14 20.01 13.59 20.36C12.6 20.98 12.35 21.8698 12.89 22.8998C13.49 24.0398 14.12 25.17 14.78 26.28C15.41 27.35 16.28 27.58 17.39 27.03C17.76 26.85 18.12 26.6299 18.49 26.4299C19.97 25.6099 21.18 26.2999 21.19 27.9699C21.19 28.3899 21.17 28.8099 21.2 29.2199C21.28 30.4099 21.9 31.03 23.09 31.05C24.42 31.08 25.75 31.08 27.08 31.05C28.21 31.02 28.83 30.41 28.93 29.3C28.97 28.85 28.94 28.3899 28.94 27.9299C28.95 26.3199 30.15 25.6098 31.55 26.3798C34.21 27.8398 34.4 27.78 35.92 25.09C36.31 24.39 36.71 23.7099 37.1 23.0099C37.8 21.7499 37.6 20.9799 36.39 20.2499C35.9 19.9599 35.41 19.6799 34.67 19.2599C36.77 19.2599 38.62 19.2599 40.47 19.2599C41.17 22.8799 37.58 28.9498 33.13 31.6498C28 34.7598 20.62 34.4798 16.11 30.9098C16.52 30.8698 16.88 30.93 17.12 30.79C17.46 30.58 17.94 30.2399 17.96 29.9399C17.98 29.6299 17.52 29.04 17.24 29.02C15.92 28.92 14.58 28.91 13.26 29.02C12.96 29.05 12.51 29.66 12.47 30.04C12.36 31.17 12.34 32.3199 12.46 33.4499C12.51 33.8799 13.04 34.2599 13.35 34.6699C13.68 34.2799 14.09 33.9399 14.31 33.4899C14.47 33.1599 14.37 32.6999 14.39 32.2499C25.87 40.5499 41.64 33.1499 42.66 19.1999C44.42 19.1999 46.19 19.1999 48.03 19.1999C48.03 26.8699 48.03 34.4799 48.03 42.1799Z" fill="#BC2539"/>
<path d="M25.0101 24.1702C28.3601 24.2102 31.02 21.5702 31.02 18.2002C31.02 14.7802 28.3701 12.1004 24.9801 12.1104C21.7501 12.1204 18.9301 14.9402 18.9501 18.1602C18.9801 21.4502 21.6801 24.1302 25.0101 24.1702ZM25.0101 13.9803C27.2201 13.9403 29.1 15.8004 29.15 18.1004C29.2 20.4004 27.42 22.2303 25.11 22.2603C22.78 22.2803 20.9201 20.5203 20.8901 18.2703C20.8701 15.9603 22.7301 14.0303 25.0101 13.9803Z" fill="#BC2539"/>
</svg>
