<svg width="61" height="57" viewBox="0 0 61 57" fill="none" xmlns="http://www.w3.org/2000/svg">
<path d="M60.09 37.83C58.5 36.21 56.8699 34.6199 55.2899 32.9899C54.9099 32.5999 54.61 32.1298 54.31 31.6698C53.97 31.1498 54.01 30.7099 54.52 30.2299C55.84 28.9899 57.13 27.6998 58.38 26.3798C60.62 24.0098 59.56 20.1699 56.44 19.2799C56.05 19.1699 55.6299 19.12 55.2399 19.05C55.4399 16.42 54.5199 14.4499 51.0799 13.6899C51.3499 10.8799 50.17 9.04002 47.34 8.36002C47.4 8.18002 47.44 8.05985 47.48 7.93985C48.13 5.81985 47.4399 3.85994 45.6799 2.77994C43.9499 1.71994 41.8399 2.03001 40.2699 3.60001C39.8799 3.99001 39.57 4.43984 39.17 4.92984C38.06 3.86984 37.12 2.97999 36.19 2.07999C35.31 1.21999 34.32 0.489862 33.07 0.449862C30.25 0.359862 27.4299 0.290028 24.6099 0.370028C23.2799 0.410028 22.51 1.52003 22.57 2.87003C22.59 3.41003 22.6799 3.93994 22.7399 4.52994C21.1899 4.49994 19.92 5.0199 18.98 6.2399C18.04 7.4499 18.01 8.83995 18.29 10.29C16.92 10.51 15.81 11.0599 15.06 12.1899C14.33 13.2799 14.14 14.49 14.45 15.81C12.86 15.86 11.72 16.5299 10.89 17.7199C10.06 18.9199 10.07 20.26 10.38 21.61C6.71996 22.55 5.49995 25.2999 7.27995 28.4899C7.37995 28.6799 7.46996 28.91 7.46996 29.12C7.43996 30.62 7.07995 31.98 5.92995 33.08C4.28995 34.65 2.71996 36.2998 1.09996 37.8898C0.519961 38.4598 0.489942 38.97 1.07994 39.55C2.05994 40.5 3.00996 41.4699 3.96996 42.4399C4.41996 42.8899 4.91996 43.2398 5.46996 42.6498C6.01996 42.0598 5.62995 41.5798 5.17995 41.1498C4.35995 40.3798 3.53995 39.62 2.64995 38.79C4.01995 37.44 5.20997 36.25 6.41997 35.08C7.71997 33.83 8.89995 32.5199 9.11995 30.4699C10.6 31.8099 12.15 32.4599 14.01 31.7599C15.89 31.0499 16.6899 29.5498 16.8999 27.6498C18.2899 27.8798 19.48 27.6199 20.54 26.7899C21.59 25.9599 22.04 24.8099 22.16 23.4699C25.14 23.8899 26.88 22.56 27.64 19.81C29.57 20.53 31.3099 20.3099 32.6799 18.7899C34.1599 17.1299 34.11 15.27 33 13.35C35.88 10.48 38.7299 7.59992 41.6199 4.75992C42.7599 3.63992 44.2399 3.63984 45.2699 4.67984C46.2999 5.71984 46.27 7.12997 45.14 8.30997C44.02 9.47997 42.8599 10.6099 41.7099 11.7599C39.9899 13.4799 38.25 15.1899 36.56 16.9399C36.31 17.1999 36.1599 17.6899 36.2099 18.0399C36.2399 18.2599 36.75 18.57 37.01 18.55C37.35 18.52 37.71 18.2399 37.97 17.9799C40.28 15.6999 42.57 13.39 44.8699 11.11C46.0599 9.93002 47.64 9.85984 48.66 10.9298C49.67 11.9898 49.57 13.4998 48.41 14.6498C46.27 16.7798 44.14 18.91 42 21.05C41.82 21.23 41.5299 21.41 41.4899 21.62C41.4299 22 41.38 22.5399 41.59 22.7499C41.79 22.9499 42.3399 22.88 42.7099 22.8C42.9199 22.75 43.0899 22.4599 43.2699 22.2799C45.1799 20.3799 47.0699 18.46 48.9899 16.57C50.2499 15.33 51.68 15.25 52.78 16.32C53.82 17.34 53.73 18.91 52.54 20.11C50.8 21.86 49.05 23.6 47.31 25.35C46.87 25.78 46.45 26.27 46.98 26.85C47.56 27.48 48.0799 27.08 48.5499 26.61C50.1299 25.02 51.69 23.41 53.32 21.87C53.77 21.45 54.3799 21.0899 54.9699 20.9499C56.0499 20.6999 57.0699 21.2899 57.5499 22.2499C58.0499 23.2399 57.8599 24.4 56.9799 25.2899C54.7899 27.5 52.57 29.6998 50.3699 31.8998C49.8999 32.3698 49.35 32.88 50.03 33.54C50.66 34.16 51.1699 33.6498 51.5799 33.1798C51.8799 32.8498 52.09 32.4499 52.23 32.2499C54.44 34.5499 56.43 36.6199 58.5 38.7699C56.76 40.4999 55.0899 42.17 53.4099 43.84C51.6899 45.56 49.97 47.2799 48.25 48.9999C47.81 49.4399 47.68 49.99 48.19 50.33C48.47 50.52 49.04 50.3199 49.47 50.2399C49.6 50.2199 49.7099 50.0298 49.8299 49.9198C53.2499 46.4998 56.67 43.0798 60.09 39.6598C60.84 38.9198 60.85 38.6 60.09 37.83ZM13.7 29.9799C12.78 30.4699 11.85 30.4299 11.07 29.7599C10.24 29.0399 9.44995 28.2598 8.73995 27.4298C8.06995 26.6498 8.02995 25.7 8.52995 24.8C8.98995 23.96 9.69994 23.4599 10.8599 23.5099C10.8699 23.5099 10.9 23.5099 10.94 23.5099C12.36 23.5799 15.0199 26.2899 15.0499 27.6999C15.0599 28.7199 14.61 29.4999 13.7 29.9799ZM19.59 25.2799C18.63 26.2099 17.1 26.2199 16.09 25.2399C14.92 24.1199 13.7799 22.97 12.6499 21.81C11.8799 21.01 11.7199 20.0399 12.1799 19.0299C12.6199 18.0499 13.42 17.5799 14.59 17.4499C15.12 17.7199 15.74 17.8899 16.16 18.2699C17.38 19.3899 18.54 20.5599 19.67 21.7699C20.62 22.7799 20.54 24.3599 19.59 25.2799ZM25.57 20.32C25.15 21.26 24.4 21.76 22.97 21.81C22.66 21.65 21.9499 21.4399 21.4599 20.9899C19.8999 19.5299 18.4 17.9999 16.91 16.4699C15.79 15.3199 15.78 13.85 16.82 12.83C17.87 11.79 19.2999 11.8099 20.4599 12.9399C22.0099 14.4599 23.55 15.99 25.06 17.55C25.82 18.33 26.03 19.28 25.57 20.32ZM30.54 18.2099C29.56 18.6699 28.62 18.5199 27.84 17.7899C26.82 16.8399 25.8599 15.83 24.8699 14.84C23.49 13.46 22.1099 12.0999 20.7399 10.7099C19.6399 9.58987 19.59 8.10998 20.6 7.06998C21.58 6.05998 23.16 6.04979 24.25 7.12979C26.61 9.44979 28.96 11.7798 31.26 14.1598C31.7 14.6098 31.8799 15.3098 32.1799 15.8898C31.9899 17.0398 31.47 17.7699 30.54 18.2099ZM29.85 9.51993C30.79 9.44993 31.84 10.42 31.91 11.8C31.2 11 30.41 10.1399 29.85 9.51993ZM33.31 10.36C33.06 9.90002 32.7499 9.43985 32.5499 8.93985C32.2699 8.23985 31.78 7.99982 31.06 7.90982C29.97 7.77982 28.88 7.59999 27.82 7.32999C25.89 6.81999 24.4599 4.99 24.3599 3.09C24.3199 2.4 24.5199 2.06999 25.2699 2.07999C27.5699 2.10999 29.8799 2.02003 32.1799 2.12003C32.9699 2.16003 33.8699 2.47987 34.4899 2.95987C35.6599 3.86987 36.68 4.97992 37.75 6.00992C36.28 7.43992 34.85 8.84002 33.31 10.36Z" fill="#BC2539"/>
<path d="M45.34 51.9198C44.61 52.6998 43.88 53.4799 43.17 54.2499C40.21 51.9099 38.37 48.4898 34.61 47.3998C34.71 47.3098 34.75 47.2499 34.81 47.2199C40.46 44.8499 44.43 40.3698 48.61 36.1598C49.03 35.7398 49.2 35.26 48.7 34.8C48.23 34.37 47.75 34.4998 47.33 34.9298C47.26 34.9998 47.2 35.0698 47.13 35.1398C45.48 36.7898 43.87 38.49 42.16 40.09C38.25 43.75 33.84 46.49 28.37 47.11C25.91 47.39 23.88 48.4499 22.2 50.2699C20.95 51.6199 19.63 52.9098 18.2 54.3798C17.7 53.7998 17.32 53.31 16.89 52.87C14.01 49.97 11.11 47.0799 8.22001 44.1899C7.76001 43.7299 7.25 43.4399 6.71 43.9799C6.19 44.4999 6.51 44.9798 6.93 45.3998C10.4 48.8698 13.86 52.34 17.33 55.8C18.1 56.57 18.44 56.56 19.2 55.8C20.67 54.34 22.17 52.8898 23.59 51.3798C24.94 49.9398 26.55 49.0398 28.51 48.8998C29.91 48.7998 31.34 48.7998 32.74 48.8998C34.66 49.0398 36.25 49.89 37.59 51.3C39.06 52.86 40.63 54.32 42.12 55.86C42.77 56.52 43.32 56.48 43.93 55.84C44.81 54.93 45.7 54.0298 46.6 53.1398C47.07 52.6798 47.36 52.1698 46.81 51.6298C46.26 51.0798 45.76 51.4598 45.34 51.9198Z" fill="#BC2539"/>
</svg>
