<svg width="31" height="31" viewBox="0 0 31 31" fill="none" xmlns="http://www.w3.org/2000/svg">
<path d="M15.65 0.890148C23.95 0.900148 30.6301 7.60017 30.6301 15.9102C30.6201 24.1902 23.92 30.9001 15.66 30.8901C7.28005 30.8801 0.61005 24.1902 0.63005 15.8102C0.64005 7.55019 7.36004 0.880148 15.65 0.890148ZM11.23 19.5502C10.61 18.7302 10.01 17.9201 9.38005 17.1301C9.25005 16.9601 9.02004 16.7501 8.84004 16.7501C7.78004 16.7701 6.86005 17.1101 6.19005 18.0001C5.97005 18.2901 6.02004 18.4701 6.25004 18.7501C6.81004 19.4101 7.42005 20.0502 7.82005 20.8102C8.54005 22.1502 9.14005 23.5501 9.75004 24.9401C9.94004 25.3701 10.2 25.4801 10.59 25.3701C10.79 25.3101 11.02 25.2301 11.17 25.0901C12.03 24.2901 12.99 23.5501 13.68 22.6201C14.84 21.0501 15.8201 19.3501 16.8801 17.7101C18.4201 15.3401 19.97 12.9701 22.03 10.9901C22.77 10.2801 23.62 9.70018 24.42 9.05018C23.96 8.50018 23.53 8.34017 22.89 8.66017C22.2 9.00017 21.48 9.36012 20.9 9.86012C19.4 11.1501 17.92 12.4501 16.54 13.8601C14.74 15.6701 13.04 17.6002 11.23 19.5502Z" fill="#BC2539"/>
</svg>
